{"asset":{"version":"2.0","generator":"CineFX Showcase Asset Pack v2"},"extensionsUsed":["KHR_materials_emissive_strength"],"buffers":[{"byteLength":64464,"uri":"data:application/octet-stream;base64,"}],"bufferViews":[{"buffer":0,"byteOffset":0,"byteLength":5184,"target":34962},{"buffer":0,"byteOffset":5184,"byteLength":5184,"target":34962},{"buffer":0,"byteOffset":10368,"byteLength":3456,"target":34962},{"buffer":0,"byteOffset":13824,"byteLength":864,"target":34963},{"buffer":0,"byteOffset":14688,"byteLength":1728,"target":34962},{"buffer":0,"byteOffset":16416,"byteLength":1728,"target":34962},{"buffer":0,"byteOffset":18144,"byteLength":1152,"target":34962},{"buffer":0,"byteOffset":19296,"byteLength":288,"target":34963},{"buffer":0,"byteOffset":19584,"byteLength":9504,"target":34962},{"buffer":0,"byteOffset":29088,"byteLength":9504,"target":34962},{"buffer":0,"byteOffset":38592,"byteLength":6336,"target":34962},{"buffer":0,"byteOffset":44928,"byteLength":1584,"target":34963},{"buffer":0,"byteOffset":46512,"byteLength":576,"target":34962},{"buffer":0,"byteOffset":47088,"byteLength":576,"target":34962},{"buffer":0,"byteOffset":47664,"byteLength":384,"target":34962},{"buffer":0,"byteOffset":48048,"byteLength":96,"target":34963},{"buffer":0,"byteOffset":48144,"byteLength":5760,"target":34962},{"buffer":0,"byteOffset":53904,"byteLength":5760,"target":34962},{"buffer":0,"byteOffset":59664,"byteLength":3840,"target":34962},{"buffer":0,"byteOffset":63504,"byteLength":960,"target":34963}],"accessors":[{"bufferView":0,"componentType":5126,"count":432,"type":"VEC3","min":[-1.18,-0.73,-3.7249999999999996],"max":[1.18,0.46,4.5]},{"bufferView":1,"componentType":5126,"count":432,"type":"VEC3"},{"bufferView":2,"componentType":5126,"count":432,"type":"VEC2"},{"bufferView":3,"componentType":5123,"count":432,"type":"SCALAR"},{"bufferView":4,"componentType":5126,"count":144,"type":"VEC3","min":[-3.9,-0.18,-2.8],"max":[3.9,0.62,3.7]},{"bufferView":5,"componentType":5126,"count":144,"type":"VEC3"},{"bufferView":6,"componentType":5126,"count":144,"type":"VEC2"},{"bufferView":7,"componentType":5123,"count":144,"type":"SCALAR"},{"bufferView":8,"componentType":5126,"count":792,"type":"VEC3","min":[-3.4874955598616397,-0.46,-3.646573956140661],"max":[3.4874955598616397,0.46,-0.30181763855133303]},{"bufferView":9,"componentType":5126,"count":792,"type":"VEC3"},{"bufferView":10,"componentType":5126,"count":792,"type":"VEC2"},{"bufferView":11,"componentType":5123,"count":792,"type":"SCALAR"},{"bufferView":12,"componentType":5126,"count":48,"type":"VEC3","min":[-0.42,0.62,0.0],"max":[0.42,1.05,2.25]},{"bufferView":13,"componentType":5126,"count":48,"type":"VEC3"},{"bufferView":14,"componentType":5126,"count":48,"type":"VEC2"},{"bufferView":15,"componentType":5123,"count":48,"type":"SCALAR"},{"bufferView":16,"componentType":5126,"count":480,"type":"VEC3","min":[-3.47,-0.32,-3.855],"max":[3.47,0.32,-1.57]},{"bufferView":17,"componentType":5126,"count":480,"type":"VEC3"},{"bufferView":18,"componentType":5126,"count":480,"type":"VEC2"},{"bufferView":19,"componentType":5123,"count":480,"type":"SCALAR"}],"materials":[{"name":"TitaniumHull","pbrMetallicRoughness":{"baseColorFactor":[0.08,0.14,0.24,1],"metallicFactor":0.82,"roughnessFactor":0.24},"emissiveFactor":[0.01,0.03,0.06],"extensions":{"KHR_materials_emissive_strength":{"emissiveStrength":1.4}}},{"name":"ArmorPanels","pbrMetallicRoughness":{"baseColorFactor":[0.18,0.32,0.52,1],"metallicFactor":0.68,"roughnessFactor":0.3}},{"name":"Canopy","pbrMetallicRoughness":{"baseColorFactor":[0.03,0.22,0.32,0.92],"metallicFactor":0.25,"roughnessFactor":0.12},"emissiveFactor":[0,0.12,0.2],"extensions":{"KHR_materials_emissive_strength":{"emissiveStrength":2}}},{"name":"EngineGlow","pbrMetallicRoughness":{"baseColorFactor":[0.1,0.75,1,1],"metallicFactor":0.1,"roughnessFactor":0.18},"emissiveFactor":[0.08,0.75,1],"extensions":{"KHR_materials_emissive_strength":{"emissiveStrength":5.5}}},{"name":"MagentaAccent","pbrMetallicRoughness":{"baseColorFactor":[0.58,0.12,0.72,1],"metallicFactor":0.42,"roughnessFactor":0.28},"emissiveFactor":[0.25,0.03,0.38],"extensions":{"KHR_materials_emissive_strength":{"emissiveStrength":2.2}}}],"meshes":[{"name":"StarfallFighter","primitives":[{"attributes":{"POSITION":0,"NORMAL":1,"TEXCOORD_0":2},"indices":3,"material":0,"mode":4},{"attributes":{"POSITION":4,"NORMAL":5,"TEXCOORD_0":6},"indices":7,"material":1,"mode":4},{"attributes":{"POSITION":8,"NORMAL":9,"TEXCOORD_0":10},"indices":11,"material":4,"mode":4},{"attributes":{"POSITION":12,"NORMAL":13,"TEXCOORD_0":14},"indices":15,"material":2,"mode":4},{"attributes":{"POSITION":16,"NORMAL":17,"TEXCOORD_0":18},"indices":19,"material":3,"mode":4}]}],"nodes":[{"name":"StarfallFighter_root","mesh":0,"children":[1,2,3]},{"name":"left_engine_socket","translation":[-0.72,0,-3.78]},{"name":"right_engine_socket","translation":[0.72,0,-3.78]},{"name":"weapon_socket","translation":[0,0.05,4.35]}],"scenes":[{"nodes":[0]}],"scene":0}