{"asset":{"version":"2.0","generator":"CineFX narrative preset asset"},"scene":0,"scenes":[{"nodes":[0]}],"nodes":[{"name":"chrono_drone_root","mesh":0}],"meshes":[{"name":"chrono_drone","primitives":[{"attributes":{"POSITION":0},"indices":1,"material":0}]}],"materials":[{"name":"chrono_drone_material","pbrMetallicRoughness":{"baseColorFactor":[0.35,0.95,1.0,1.0],"metallicFactor":0.55,"roughnessFactor":0.28},"emissiveFactor":[0.07,0.19,0.2]}],"buffers":[{"uri":"data:application/octet-stream;base64,","byteLength":168}],"bufferViews":[{"buffer":0,"byteOffset":0,"byteLength":96,"target":34962},{"buffer":0,"byteOffset":96,"byteLength":72,"target":34963}],"accessors":[{"bufferView":0,"componentType":5126,"count":8,"type":"VEC3","min":[-2.4,-1.1,-1.4],"max":[2.4,1.1,1.4]},{"bufferView":1,"componentType":5123,"count":36,"type":"SCALAR"}]}