{"asset":{"version":"2.0","generator":"CineFX Showcase Asset Pack v2"},"extensionsUsed":["KHR_materials_emissive_strength"],"buffers":[{"byteLength":227256,"uri":"data:application/octet-stream;base64,"}],"bufferViews":[{"buffer":0,"byteOffset":0,"byteLength":12816,"target":34962},{"buffer":0,"byteOffset":12816,"byteLength":12816,"target":34962},{"buffer":0,"byteOffset":25632,"byteLength":8544,"target":34962},{"buffer":0,"byteOffset":34176,"byteLength":2136,"target":34963},{"buffer":0,"byteOffset":36312,"byteLength":1296,"target":34962},{"buffer":0,"byteOffset":37608,"byteLength":1296,"target":34962},{"buffer":0,"byteOffset":38904,"byteLength":864,"target":34962},{"buffer":0,"byteOffset":39768,"byteLength":216,"target":34963},{"buffer":0,"byteOffset":39984,"byteLength":35856,"target":34962},{"buffer":0,"byteOffset":75840,"byteLength":35856,"target":34962},{"buffer":0,"byteOffset":111696,"byteLength":23904,"target":34962},{"buffer":0,"byteOffset":135600,"byteLength":5976,"target":34963},{"buffer":0,"byteOffset":141576,"byteLength":576,"target":34962},{"buffer":0,"byteOffset":142152,"byteLength":576,"target":34962},{"buffer":0,"byteOffset":142728,"byteLength":384,"target":34962},{"buffer":0,"byteOffset":143112,"byteLength":96,"target":34963},{"buffer":0,"byteOffset":143208,"byteLength":11664,"target":34962},{"buffer":0,"byteOffset":154872,"byteLength":11664,"target":34962},{"buffer":0,"byteOffset":166536,"byteLength":7776,"target":34962},{"buffer":0,"byteOffset":174312,"byteLength":1944,"target":34963},{"buffer":0,"byteOffset":176256,"byteLength":18000,"target":34962},{"buffer":0,"byteOffset":194256,"byteLength":18000,"target":34962},{"buffer":0,"byteOffset":212256,"byteLength":12000,"target":34962},{"buffer":0,"byteOffset":224256,"byteLength":3000,"target":34963}],"accessors":[{"bufferView":0,"componentType":5126,"count":1068,"type":"VEC3","min":[-6.8,-1.45,-4.8],"max":[6.8,0.55,6.2]},{"bufferView":1,"componentType":5126,"count":1068,"type":"VEC3"},{"bufferView":2,"componentType":5126,"count":1068,"type":"VEC2"},{"bufferView":3,"componentType":5123,"count":1068,"type":"SCALAR"},{"bufferView":4,"componentType":5126,"count":108,"type":"VEC3","min":[-3.4,0.55,-3.9],"max":[3.4,1.6,5.1]},{"bufferView":5,"componentType":5126,"count":108,"type":"VEC3"},{"bufferView":6,"componentType":5126,"count":108,"type":"VEC2"},{"bufferView":7,"componentType":5123,"count":108,"type":"SCALAR"},{"bufferView":8,"componentType":5126,"count":2988,"type":"VEC3","min":[-5.9,-0.6,-4.637063390977709],"max":[5.9,2.225,3.409232433584934]},{"bufferView":9,"componentType":5126,"count":2988,"type":"VEC3"},{"bufferView":10,"componentType":5126,"count":2988,"type":"VEC2"},{"bufferView":11,"componentType":5123,"count":2988,"type":"SCALAR"},{"bufferView":12,"componentType":5126,"count":48,"type":"VEC3","min":[-0.72,1.58,-0.4],"max":[0.72,1.95,1.9]},{"bufferView":13,"componentType":5126,"count":48,"type":"VEC3"},{"bufferView":14,"componentType":5126,"count":48,"type":"VEC2"},{"bufferView":15,"componentType":5123,"count":48,"type":"SCALAR"},{"bufferView":16,"componentType":5126,"count":972,"type":"VEC3","min":[-4.73,-0.45,-4.9],"max":[4.73,1.01,-2.5100000000000002]},{"bufferView":17,"componentType":5126,"count":972,"type":"VEC3"},{"bufferView":18,"componentType":5126,"count":972,"type":"VEC2"},{"bufferView":19,"componentType":5123,"count":972,"type":"SCALAR"},{"bufferView":20,"componentType":5126,"count":1500,"type":"VEC3","min":[-4.4350000000000005,-1.85,-0.6236373471183699],"max":[4.4350000000000005,0.68,3.6799999999999997]},{"bufferView":21,"componentType":5126,"count":1500,"type":"VEC3"},{"bufferView":22,"componentType":5126,"count":1500,"type":"VEC2"},{"bufferView":23,"componentType":5123,"count":1500,"type":"SCALAR"}],"materials":[{"name":"CapitalHull","pbrMetallicRoughness":{"baseColorFactor":[0.055,0.075,0.12,1],"metallicFactor":0.86,"roughnessFactor":0.22}},{"name":"ArmorPlates","pbrMetallicRoughness":{"baseColorFactor":[0.16,0.23,0.34,1],"metallicFactor":0.74,"roughnessFactor":0.3}},{"name":"HullEdge","pbrMetallicRoughness":{"baseColorFactor":[0.28,0.38,0.54,1],"metallicFactor":0.65,"roughnessFactor":0.24}},{"name":"CommandGlass","pbrMetallicRoughness":{"baseColorFactor":[0.02,0.18,0.28,0.95],"metallicFactor":0.28,"roughnessFactor":0.12},"emissiveFactor":[0,0.08,0.16],"extensions":{"KHR_materials_emissive_strength":{"emissiveStrength":1.8}}},{"name":"DriveGlow","pbrMetallicRoughness":{"baseColorFactor":[0.08,0.72,1,1],"metallicFactor":0.06,"roughnessFactor":0.12},"emissiveFactor":[0.06,0.72,1],"extensions":{"KHR_materials_emissive_strength":{"emissiveStrength":6}}},{"name":"WeaponEnergy","pbrMetallicRoughness":{"baseColorFactor":[0.62,0.18,1,1],"metallicFactor":0.08,"roughnessFactor":0.14},"emissiveFactor":[0.5,0.08,0.9],"extensions":{"KHR_materials_emissive_strength":{"emissiveStrength":4.5}}}],"meshes":[{"name":"StarfallMothership","primitives":[{"attributes":{"POSITION":0,"NORMAL":1,"TEXCOORD_0":2},"indices":3,"material":0,"mode":4},{"attributes":{"POSITION":4,"NORMAL":5,"TEXCOORD_0":6},"indices":7,"material":1,"mode":4},{"attributes":{"POSITION":8,"NORMAL":9,"TEXCOORD_0":10},"indices":11,"material":2,"mode":4},{"attributes":{"POSITION":12,"NORMAL":13,"TEXCOORD_0":14},"indices":15,"material":3,"mode":4},{"attributes":{"POSITION":16,"NORMAL":17,"TEXCOORD_0":18},"indices":19,"material":4,"mode":4},{"attributes":{"POSITION":20,"NORMAL":21,"TEXCOORD_0":22},"indices":23,"material":5,"mode":4}]}],"nodes":[{"name":"StarfallMothership_root","mesh":0,"children":[1,2,3,4]},{"name":"left_engine_socket","translation":[-3,-0.12,-4.85]},{"name":"right_engine_socket","translation":[3,-0.12,-4.85]},{"name":"beam_socket","translation":[0,-1.52,2.9]},{"name":"bridge_socket","translation":[0,1.9,0.9]}],"scenes":[{"nodes":[0]}],"scene":0}