{"asset":{"version":"2.0","generator":"CineFX Showcase Asset Pack v2"},"extensionsUsed":["KHR_materials_emissive_strength"],"buffers":[{"byteLength":127908,"uri":"data:application/octet-stream;base64,"}],"bufferViews":[{"buffer":0,"byteOffset":0,"byteLength":2304,"target":34962},{"buffer":0,"byteOffset":2304,"byteLength":2304,"target":34962},{"buffer":0,"byteOffset":4608,"byteLength":1536,"target":34962},{"buffer":0,"byteOffset":6144,"byteLength":384,"target":34963},{"buffer":0,"byteOffset":6528,"byteLength":13104,"target":34962},{"buffer":0,"byteOffset":19632,"byteLength":13104,"target":34962},{"buffer":0,"byteOffset":32736,"byteLength":8736,"target":34962},{"buffer":0,"byteOffset":41472,"byteLength":2184,"target":34963},{"buffer":0,"byteOffset":43656,"byteLength":24552,"target":34962},{"buffer":0,"byteOffset":68208,"byteLength":24552,"target":34962},{"buffer":0,"byteOffset":92760,"byteLength":16368,"target":34962},{"buffer":0,"byteOffset":109128,"byteLength":4092,"target":34963},{"buffer":0,"byteOffset":113220,"byteLength":5184,"target":34962},{"buffer":0,"byteOffset":118404,"byteLength":5184,"target":34962},{"buffer":0,"byteOffset":123588,"byteLength":3456,"target":34962},{"buffer":0,"byteOffset":127044,"byteLength":864,"target":34963}],"accessors":[{"bufferView":0,"componentType":5126,"count":192,"type":"VEC3","min":[-1.3,0.0,-1.3],"max":[1.3,2.65,1.3]},{"bufferView":1,"componentType":5126,"count":192,"type":"VEC3"},{"bufferView":2,"componentType":5126,"count":192,"type":"VEC2"},{"bufferView":3,"componentType":5123,"count":192,"type":"SCALAR"},{"bufferView":4,"componentType":5126,"count":1092,"type":"VEC3","min":[-0.95,0.32999999999999996,-1.2717656923171359],"max":[1.4049999999999998,4.555,1.2717656923171363]},{"bufferView":5,"componentType":5126,"count":1092,"type":"VEC3"},{"bufferView":6,"componentType":5126,"count":1092,"type":"VEC2"},{"bufferView":7,"componentType":5123,"count":1092,"type":"SCALAR"},{"bufferView":8,"componentType":5126,"count":2046,"type":"VEC3","min":[-0.8365036161174095,0.7581813264408149,-1.3163586137523464],"max":[1.52,4.955,1.3163586137523469]},{"bufferView":9,"componentType":5126,"count":2046,"type":"VEC3"},{"bufferView":10,"componentType":5126,"count":2046,"type":"VEC2"},{"bufferView":11,"componentType":5123,"count":2046,"type":"SCALAR"},{"bufferView":12,"componentType":5126,"count":432,"type":"VEC3","min":[-0.77,3.4927450198274466,-0.34497776267511654],"max":[0.77,4.867254980172553,0.34497776267511654]},{"bufferView":13,"componentType":5126,"count":432,"type":"VEC3"},{"bufferView":14,"componentType":5126,"count":432,"type":"VEC2"},{"bufferView":15,"componentType":5123,"count":432,"type":"SCALAR"}],"materials":[{"name":"BasaltBase","pbrMetallicRoughness":{"baseColorFactor":[0.08,0.1,0.13,1],"metallicFactor":0.55,"roughnessFactor":0.55}},{"name":"MachinedAlloy","pbrMetallicRoughness":{"baseColorFactor":[0.28,0.38,0.46,1],"metallicFactor":0.72,"roughnessFactor":0.28}},{"name":"StabilizerEnergy","pbrMetallicRoughness":{"baseColorFactor":[0.08,0.85,1,1],"metallicFactor":0.08,"roughnessFactor":0.16},"emissiveFactor":[0.06,0.8,1],"extensions":{"KHR_materials_emissive_strength":{"emissiveStrength":5}}},{"name":"WarningAccent","pbrMetallicRoughness":{"baseColorFactor":[0.86,0.18,0.48,1],"metallicFactor":0.35,"roughnessFactor":0.28},"emissiveFactor":[0.35,0.02,0.15],"extensions":{"KHR_materials_emissive_strength":{"emissiveStrength":2.2}}}],"meshes":[{"name":"StabilizerPylon","primitives":[{"attributes":{"POSITION":0,"NORMAL":1,"TEXCOORD_0":2},"indices":3,"material":0,"mode":4},{"attributes":{"POSITION":4,"NORMAL":5,"TEXCOORD_0":6},"indices":7,"material":1,"mode":4},{"attributes":{"POSITION":8,"NORMAL":9,"TEXCOORD_0":10},"indices":11,"material":2,"mode":4},{"attributes":{"POSITION":12,"NORMAL":13,"TEXCOORD_0":14},"indices":15,"material":3,"mode":4}]}],"nodes":[{"name":"StabilizerPylon_root","mesh":0,"children":[1,2]},{"name":"beam_socket","translation":[0,4.25,0]},{"name":"core_socket","translation":[0,4.18,0]}],"scenes":[{"nodes":[0]}],"scene":0}