{"asset":{"version":"2.0","generator":"CineFX Showcase Asset Pack v2"},"extensionsUsed":["KHR_materials_emissive_strength"],"buffers":[{"byteLength":100368,"uri":"data:application/octet-stream;base64,"}],"bufferViews":[{"buffer":0,"byteOffset":0,"byteLength":6912,"target":34962},{"buffer":0,"byteOffset":6912,"byteLength":6912,"target":34962},{"buffer":0,"byteOffset":13824,"byteLength":4608,"target":34962},{"buffer":0,"byteOffset":18432,"byteLength":1152,"target":34963},{"buffer":0,"byteOffset":19584,"byteLength":14976,"target":34962},{"buffer":0,"byteOffset":34560,"byteLength":14976,"target":34962},{"buffer":0,"byteOffset":49536,"byteLength":9984,"target":34962},{"buffer":0,"byteOffset":59520,"byteLength":2496,"target":34963},{"buffer":0,"byteOffset":62016,"byteLength":3456,"target":34962},{"buffer":0,"byteOffset":65472,"byteLength":3456,"target":34962},{"buffer":0,"byteOffset":68928,"byteLength":2304,"target":34962},{"buffer":0,"byteOffset":71232,"byteLength":576,"target":34963},{"buffer":0,"byteOffset":71808,"byteLength":10080,"target":34962},{"buffer":0,"byteOffset":81888,"byteLength":10080,"target":34962},{"buffer":0,"byteOffset":91968,"byteLength":6720,"target":34962},{"buffer":0,"byteOffset":98688,"byteLength":1680,"target":34963}],"accessors":[{"bufferView":0,"componentType":5126,"count":576,"type":"VEC3","min":[-1.28,-1.897888158370829,-1.1776],"max":[1.28,1.472,1.1776]},{"bufferView":1,"componentType":5126,"count":576,"type":"VEC3"},{"bufferView":2,"componentType":5126,"count":576,"type":"VEC2"},{"bufferView":3,"componentType":5123,"count":576,"type":"SCALAR"},{"bufferView":4,"componentType":5126,"count":1248,"type":"VEC3","min":[-1.7073025769487336,-0.7188109087360909,-1.6732112125310885],"max":[1.7073025769487336,0.7640000000000001,1.6732112125310885]},{"bufferView":5,"componentType":5126,"count":1248,"type":"VEC3"},{"bufferView":6,"componentType":5126,"count":1248,"type":"VEC2"},{"bufferView":7,"componentType":5123,"count":1248,"type":"SCALAR"},{"bufferView":8,"componentType":5126,"count":288,"type":"VEC3","min":[-1.2000000000000002,-1.2686618397327827,-1.2000000000000002],"max":[1.2,1.2686618397327827,1.2]},{"bufferView":9,"componentType":5126,"count":288,"type":"VEC3"},{"bufferView":10,"componentType":5126,"count":288,"type":"VEC2"},{"bufferView":11,"componentType":5123,"count":288,"type":"SCALAR"},{"bufferView":12,"componentType":5126,"count":840,"type":"VEC3","min":[-1.59,-1.3121798609092943,-1.51],"max":[1.59,1.7121798609092942,1.51]},{"bufferView":13,"componentType":5126,"count":840,"type":"VEC3"},{"bufferView":14,"componentType":5126,"count":840,"type":"VEC2"},{"bufferView":15,"componentType":5123,"count":840,"type":"SCALAR"}],"materials":[{"name":"AncientStone","pbrMetallicRoughness":{"baseColorFactor":[0.16,0.11,0.08,1],"metallicFactor":0.15,"roughnessFactor":0.78}},{"name":"BuriedAlloy","pbrMetallicRoughness":{"baseColorFactor":[0.3,0.2,0.12,1],"metallicFactor":0.45,"roughnessFactor":0.52}},{"name":"HeartFire","pbrMetallicRoughness":{"baseColorFactor":[1,0.34,0.06,1],"metallicFactor":0.03,"roughnessFactor":0.14},"emissiveFactor":[1,0.18,0.02],"extensions":{"KHR_materials_emissive_strength":{"emissiveStrength":6.5}}},{"name":"RunicGold","pbrMetallicRoughness":{"baseColorFactor":[0.72,0.42,0.12,1],"metallicFactor":0.62,"roughnessFactor":0.28},"emissiveFactor":[0.25,0.08,0.01],"extensions":{"KHR_materials_emissive_strength":{"emissiveStrength":1.8}}}],"meshes":[{"name":"TitanHeart","primitives":[{"attributes":{"POSITION":0,"NORMAL":1,"TEXCOORD_0":2},"indices":3,"material":0,"mode":4},{"attributes":{"POSITION":4,"NORMAL":5,"TEXCOORD_0":6},"indices":7,"material":2,"mode":4},{"attributes":{"POSITION":8,"NORMAL":9,"TEXCOORD_0":10},"indices":11,"material":1,"mode":4},{"attributes":{"POSITION":12,"NORMAL":13,"TEXCOORD_0":14},"indices":15,"material":3,"mode":4}]}],"nodes":[{"name":"TitanHeart_root","mesh":0,"children":[1]},{"name":"core_socket","translation":[0,0.05,0]}],"scenes":[{"nodes":[0]}],"scene":0}