{"asset":{"version":"2.0","generator":"CineFX narrative preset asset"},"scene":0,"scenes":[{"nodes":[0]}],"nodes":[{"name":"zeropoint_core_root","mesh":0}],"meshes":[{"name":"zeropoint_core","primitives":[{"attributes":{"POSITION":0},"indices":1,"material":0}]}],"materials":[{"name":"zeropoint_core_material","pbrMetallicRoughness":{"baseColorFactor":[0.22,0.85,1.0,1.0],"metallicFactor":0.55,"roughnessFactor":0.28},"emissiveFactor":[0.044,0.17,0.2]}],"buffers":[{"uri":"data:application/octet-stream;base64,","byteLength":120}],"bufferViews":[{"buffer":0,"byteOffset":0,"byteLength":72,"target":34962},{"buffer":0,"byteOffset":72,"byteLength":48,"target":34963}],"accessors":[{"bufferView":0,"componentType":5126,"count":6,"type":"VEC3","min":[-1.4,-2.2,-1.4],"max":[1.4,2.2,1.4]},{"bufferView":1,"componentType":5123,"count":24,"type":"SCALAR"}]}